<?xml version="1.0" encoding="UTF-8"?>
<svg width="120" height="120" viewBox="0 0 120 120" fill="none" xmlns="http://www.w3.org/2000/svg">
  <!-- Gradient definitions -->
  <defs>
    <linearGradient id="logoGradient" x1="0%" y1="0%" x2="100%" y2="100%">
      <stop offset="0%" style="stop-color:#FFF7AD"/>
      <stop offset="100%" style="stop-color:#FFA7F9"/>
    </linearGradient>
    <filter id="glow">
      <feGaussianBlur stdDeviation="2" result="coloredBlur"/>
      <feMerge>
        <feMergeNode in="coloredBlur"/>
        <feMergeNode in="SourceGraphic"/>
      </feMerge>
    </filter>
  </defs>

  <!-- Background circle with gradient -->
  <circle cx="60" cy="60" r="55" 
    fill="none" 
    stroke="url(#logoGradient)" 
    stroke-width="2"
    filter="url(#glow)"
  />

  <!-- Stylized G -->
  <path d="M45 45C45 35 52 30 60 30C68 30 75 35 75 45C75 55 68 60 60 60C52 60 48 55 48 50"
    stroke="url(#logoGradient)"
    stroke-width="4"
    stroke-linecap="round"
    fill="none"
    filter="url(#glow)"
  />

  <!-- Stylized N -->
  <path d="M48 70L48 85M48 85L60 70L60 85"
    stroke="url(#logoGradient)"
    stroke-width="4"
    stroke-linecap="round"
    fill="none"
    filter="url(#glow)"
  />

  <!-- Target/Search symbol -->
  <circle cx="72" cy="77" r="8" 
    stroke="url(#logoGradient)" 
    stroke-width="2"
    fill="none"
    filter="url(#glow)"
  />
  
  <!-- Crosshair lines -->
  <line x1="72" y1="73" x2="72" y2="81"
    stroke="url(#logoGradient)"
    stroke-width="2"
    stroke-linecap="round"
    filter="url(#glow)"
  />
  <line x1="68" y1="77" x2="76" y2="77"
    stroke="url(#logoGradient)"
    stroke-width="2"
    stroke-linecap="round"
    filter="url(#glow)"
  />

  <!-- Connection dots -->
  <circle cx="40" cy="45" r="2" fill="url(#logoGradient)" filter="url(#glow)"/>
  <circle cx="80" cy="45" r="2" fill="url(#logoGradient)" filter="url(#glow)"/>
  <circle cx="60" cy="90" r="2" fill="url(#logoGradient)" filter="url(#glow)"/>
</svg> 